<svg xmlns="http://www.w3.org/2000/svg" xmlns:xlink="http://www.w3.org/1999/xlink" version="1.1" x="0px" y="0px" viewBox="0 0 100 100" enable-background="new 0 0 100 100" xml:space="preserve"><path d="M88.273,22.801v40.622c0,1.865-1.512,3.377-3.377,3.377h-8.565V36.577c0-3.967-3.227-7.194-7.194-7.194h-41.65v-6.582  c0-1.865,1.512-3.377,3.377-3.377h54.032C86.761,19.424,88.273,20.936,88.273,22.801z M59.25,51.407c2.73,0,4.943-2.213,4.943-4.943  c0-2.73-2.213-4.943-4.943-4.943c-2.73,0-4.943,2.213-4.943,4.943C54.307,49.194,56.52,51.407,59.25,51.407z M72.513,36.577v40.622  c0,1.865-1.512,3.377-3.377,3.377H15.104c-1.865,0-3.377-1.512-3.377-3.377V36.577c0-1.865,1.512-3.377,3.377-3.377h54.032  C71.001,33.2,72.513,34.712,72.513,36.577z M66.787,38.927H17.453v17.792l10.576-10.576c1.319-1.319,3.457-1.319,4.776,0  l12.899,12.899l-6.215,6.215c-0.487,0.487-0.487,1.278,0,1.765c0.487,0.487,1.278,0.487,1.765,0l6.215-6.215l0.002,0.002  l5.421-5.421c1.319-1.319,3.457-1.319,4.776,0l9.12,9.12V38.927z" fill="#fff"/></svg>
