<svg xmlns="http://www.w3.org/2000/svg" xmlns:xlink="http://www.w3.org/1999/xlink" version="1.1" x="0px" y="0px" viewBox="0 0 32 32" enable-background="new 0 0 32 32" xml:space="preserve"><path d="M25.016,12.936c0.254-0.853,0.396-1.756,0.396-2.692c0-5.198-4.214-9.411-9.411-9.411s-9.411,4.214-9.411,9.411  c0,0.936,0.141,1.838,0.396,2.692c-3.588,1.327-6.151,4.769-6.151,8.819c0,5.198,4.214,9.411,9.411,9.411  c2.17,0,4.163-0.742,5.755-1.976c1.592,1.234,3.585,1.976,5.755,1.976c5.198,0,9.411-4.214,9.411-9.411  C31.167,17.706,28.604,14.264,25.016,12.936z M18.708,21.755c0,2.443-1.047,4.641-2.708,6.187c-1.661-1.546-2.708-3.744-2.708-6.187  c0-0.837,0.127-1.644,0.354-2.408c0.754,0.194,1.54,0.309,2.354,0.309s1.6-0.114,2.354-0.309  C18.581,20.111,18.708,20.918,18.708,21.755z M16,18.708c-0.703,0-1.382-0.096-2.035-0.258c0.469-1.102,1.171-2.078,2.035-2.882  c0.864,0.804,1.566,1.781,2.035,2.882C17.382,18.612,16.703,18.708,16,18.708z M13.056,18.169c-2.178-0.812-3.939-2.489-4.846-4.619  c0.653-0.162,1.332-0.258,2.035-0.258c1.879,0,3.611,0.623,5.017,1.663C14.319,15.855,13.561,16.945,13.056,18.169z M16.739,14.955  c1.406-1.04,3.138-1.663,5.017-1.663c0.703,0,1.382,0.096,2.035,0.258c-0.907,2.13-2.668,3.807-4.846,4.619  C18.439,16.945,17.681,15.855,16.739,14.955z" fill="#fff"></path></svg>
